<?xml version="1.0" encoding="UTF-8" standalone="no"?>
<!-- Created with Inkscape (http://www.inkscape.org/) -->

<svg
   xmlns:dc="http://purl.org/dc/elements/1.1/"
   xmlns:cc="http://creativecommons.org/ns#"
   xmlns:rdf="http://www.w3.org/1999/02/22-rdf-syntax-ns#"
   xmlns:svg="http://www.w3.org/2000/svg"
   xmlns="http://www.w3.org/2000/svg"
   version="1.1"
   width="16"
   height="16"
   id="svg2">
  <defs
     id="defs4" />
  <metadata
     id="metadata7">
    <rdf:RDF>
      <cc:Work
         rdf:about="">
        <dc:format>image/svg+xml</dc:format>
        <dc:type
           rdf:resource="http://purl.org/dc/dcmitype/StillImage" />
        <dc:title></dc:title>
      </cc:Work>
    </rdf:RDF>
  </metadata>
  <g
     transform="translate(0,-1036.3622)"
     id="layer1">
    <path
       d="M 3,2 A 1,1 0 1 1 1,2 1,1 0 1 1 3,2 z"
       transform="translate(0,1036.3622)"
       id="path2992"
       style="fill:#000000;fill-opacity:1;stroke:#000000;stroke-width:1;stroke-linecap:round;stroke-linejoin:round;stroke-miterlimit:4;stroke-opacity:1;stroke-dasharray:none;stroke-dashoffset:0" />
    <path
       d="M 3,2 A 1,1 0 1 1 1,2 1,1 0 1 1 3,2 z"
       transform="translate(12,1036.3622)"
       id="path2992-5"
       style="fill:#000000;fill-opacity:1;stroke:#000000;stroke-opacity:1" />
    <path
       d="M 3,2 A 1,1 0 1 1 1,2 1,1 0 1 1 3,2 z"
       transform="translate(0,1048.3622)"
       id="path2992-0"
       style="fill:#000000;fill-opacity:1;stroke:#000000;stroke-opacity:1" />
    <path
       d="M 3,2 A 1,1 0 1 1 1,2 1,1 0 1 1 3,2 z"
       transform="translate(12,1048.3622)"
       id="path2992-2"
       style="fill:#000000;fill-opacity:1;stroke:#000000;stroke-opacity:1" />
    <path
       d="M 3,2 A 1,1 0 1 1 1,2 1,1 0 1 1 3,2 z"
       transform="translate(0,1042.3622)"
       id="path2992-8"
       style="fill:#000000;fill-opacity:1;stroke:#000000;stroke-opacity:1" />
    <path
       d="M 8,8 8,2"
       transform="translate(0,1036.3622)"
       id="path3829"
       style="fill:none;stroke:#000000;stroke-width:1px;stroke-linecap:butt;stroke-linejoin:miter;stroke-opacity:1" />
    <path
       d="M 8,8 2,2"
       transform="translate(0,1036.3622)"
       id="path3833"
       style="fill:none;stroke:#000000;stroke-width:1px;stroke-linecap:butt;stroke-linejoin:miter;stroke-opacity:1" />
    <path
       d="M 8,8 14,2"
       transform="translate(0,1036.3622)"
       id="path3831"
       style="fill:none;stroke:#000000;stroke-width:1px;stroke-linecap:butt;stroke-linejoin:miter;stroke-opacity:1" />
    <path
       d="M 3,2 A 1,1 0 1 1 1,2 1,1 0 1 1 3,2 z"
       transform="translate(6,1036.3622)"
       id="path2992-1"
       style="fill:#000000;fill-opacity:1;stroke:#000000;stroke-opacity:1" />
    <path
       d="m 8,8 6,0"
       transform="translate(0,1036.3622)"
       id="path3843"
       style="fill:none;stroke:#000000;stroke-width:1px;stroke-linecap:butt;stroke-linejoin:miter;stroke-opacity:1" />
    <path
       d="M 3,2 A 1,1 0 1 1 1,2 1,1 0 1 1 3,2 z"
       transform="translate(12,1042.3622)"
       id="path2992-3"
       style="fill:#000000;fill-opacity:1;stroke:#000000;stroke-opacity:1" />
    <path
       d="M 3,2 A 1,1 0 1 1 1,2 1,1 0 1 1 3,2 z"
       transform="translate(6,1048.3622)"
       id="path2992-9"
       style="fill:#000000;fill-opacity:1;stroke:#000000;stroke-opacity:1" />
    <path
       d="M 3,2 A 1,1 0 1 1 1,2 1,1 0 1 1 3,2 z"
       transform="translate(6,1042.3622)"
       id="path2992-05"
       style="fill:#000000;fill-opacity:1;stroke:#000000;stroke-width:3;stroke-miterlimit:4;stroke-opacity:1;stroke-dasharray:none" />
    <path
       d="M 8,8 2,8"
       transform="translate(0,1036.3622)"
       id="path3835"
       style="fill:none;stroke:#000000;stroke-width:1px;stroke-linecap:butt;stroke-linejoin:miter;stroke-opacity:1" />
    <path
       d="M 8,8 2,14"
       transform="translate(0,1036.3622)"
       id="path3837"
       style="fill:none;stroke:#000000;stroke-width:1px;stroke-linecap:butt;stroke-linejoin:miter;stroke-opacity:1" />
    <path
       d="m 8,8 0,6"
       transform="translate(0,1036.3622)"
       id="path3839"
       style="fill:none;stroke:#000000;stroke-width:1px;stroke-linecap:butt;stroke-linejoin:miter;stroke-opacity:1" />
    <path
       d="m 8,8 6,6"
       transform="translate(0,1036.3622)"
       id="path3841"
       style="fill:none;stroke:#000000;stroke-width:1px;stroke-linecap:butt;stroke-linejoin:miter;stroke-opacity:1" />
  </g>
</svg>
