<?xml version="1.0" encoding="UTF-8" standalone="no"?>
<!-- Created with Inkscape (http://www.inkscape.org/) -->

<svg
   width="16"
   height="16"
   id="svg2"
   version="1.1"
   inkscape:version="1.1.1 (3bf5ae0d25, 2021-09-20)"
   sodipodi:docname="proofread.svg"
   xmlns:inkscape="http://www.inkscape.org/namespaces/inkscape"
   xmlns:sodipodi="http://sodipodi.sourceforge.net/DTD/sodipodi-0.dtd"
   xmlns="http://www.w3.org/2000/svg"
   xmlns:svg="http://www.w3.org/2000/svg"
   xmlns:rdf="http://www.w3.org/1999/02/22-rdf-syntax-ns#"
   xmlns:cc="http://creativecommons.org/ns#"
   xmlns:dc="http://purl.org/dc/elements/1.1/">
  <defs
     id="defs4" />
  <sodipodi:namedview
     id="base"
     pagecolor="#ffffff"
     bordercolor="#666666"
     borderopacity="1.0"
     inkscape:pageopacity="0.0"
     inkscape:pageshadow="2"
     inkscape:zoom="31.678384"
     inkscape:cx="1.894036"
     inkscape:cy="11.253731"
     inkscape:document-units="px"
     inkscape:current-layer="layer1"
     showgrid="true"
     inkscape:window-width="1920"
     inkscape:window-height="1171"
     inkscape:window-x="1600"
     inkscape:window-y="0"
     inkscape:window-maximized="1"
     inkscape:pagecheckerboard="0">
    <inkscape:grid
       type="xygrid"
       id="grid2985"
       empspacing="5"
       visible="true"
       enabled="true"
       snapvisiblegridlinesonly="true" />
  </sodipodi:namedview>
  <metadata
     id="metadata7">
    <rdf:RDF>
      <cc:Work
         rdf:about="">
        <dc:format>image/svg+xml</dc:format>
        <dc:type
           rdf:resource="http://purl.org/dc/dcmitype/StillImage" />
      </cc:Work>
    </rdf:RDF>
  </metadata>
  <g
     inkscape:label="Layer 1"
     inkscape:groupmode="layer"
     id="layer1"
     transform="translate(0,-1036.3622)">
    <path
       style="fill:#000000;stroke-width:0.01429"
       d="m 3.7855729,1047.5396 c -1.00522,-0.1424 -1.84461,-0.6974 -2.3577,-1.5587 -0.2005,-0.3366 -0.37652,-0.8295 -0.41448,-1.1608 -0.0189,-0.1647 -0.0182,-0.7543 0.001,-0.9271 0.0186,-0.1667 0.11588,-0.5134 0.20623,-0.7349 0.43956,-1.0775 1.44263,-1.8437 2.59819,-1.9847 0.18051,-0.022 0.66433,-0.01 0.86698,0.022 0.70794,0.1115 1.28881,0.4175 1.80783,0.9521 0.35151,0.3621 0.56211,0.708 0.73596,1.209 0.0334,0.096 0.069,0.1862 0.0791,0.2001 0.0201,0.027 0.002,0.031 0.28508,-0.048 0.12455,-0.035 0.39063,-0.051 0.57516,-0.035 0.16628,0.014 0.24692,0.032 0.40853,0.09 0.0705,0.025 0.0854,0.027 0.0959,0.01 0.007,-0.011 0.0397,-0.097 0.0729,-0.1917 0.1838,-0.522 0.43368,-0.928 0.79114,-1.2858 0.4747401,-0.475 1.0604201,-0.7765 1.7502501,-0.9007 0.20908,-0.038 0.67512,-0.045 0.91541,-0.015 0.71397,0.091 1.39652,0.4352 1.90006,0.9597 0.24302,0.2531 0.40518,0.4856 0.56421,0.8087 0.44407,0.9025 0.4441,1.9194 1.2e-4,2.8192 -0.45896,0.9301 -1.27656,1.5489 -2.3059,1.7452 -0.23478,0.045 -0.66816,0.062 -0.89713,0.035 -0.60866,-0.07 -1.20856,-0.3222 -1.6883701,-0.7091 -0.62062,-0.5005 -1.03563,-1.237 -1.14675,-2.0351 -0.0159,-0.1145 -0.039,-0.2356 -0.0512,-0.269 -0.0268,-0.073 -0.10596,-0.1419 -0.23358,-0.2023 -0.12784,-0.06 -0.22479,-0.077 -0.40043,-0.07 -0.12908,0.01 -0.16615,0.013 -0.26247,0.054 -0.19588,0.082 -0.29511,0.1808 -0.29511,0.293 0,0.1491 -0.11015,0.6356 -0.19583,0.8649 -0.40411,1.0817 -1.34625,1.8533 -2.50497,2.0514 -0.19422,0.033 -0.7042,0.04 -0.90026,0.013 z m 0.60018,-0.779 c 0.5324,-0.05 0.95,-0.2229 1.3529,-0.561 0.45297,-0.3801 0.77331,-0.9595 0.83394,-1.5084 0.0229,-0.2076 0.0103,-0.6793 -0.0222,-0.8303 -0.18776,-0.8719 -0.89652,-1.6123 -1.7575,-1.836 -0.31267,-0.081 -0.6656,-0.1002 -0.95228,-0.051 -0.82747,0.1415 -1.47153,0.6209 -1.82502,1.3584 -0.10402,0.217 -0.16604,0.4004 -0.19746,0.5838 -0.034,0.1986 -0.0332,0.7009 0.002,0.8944 0.0714,0.3983 0.30158,0.853 0.5968,1.179 0.32482,0.3588 0.80139,0.6281 1.29318,0.7308 0.25851,0.054 0.42466,0.064 0.67612,0.04 z m -1.72273,-2.1139 c -0.0319,-0.016 -0.0833,-0.055 -0.11432,-0.086 l -0.0564,-0.058 -0.005,-0.1514 c -0.0145,-0.4444 0.16367,-0.8723 0.5046,-1.212 0.25456,-0.2536 0.55579,-0.409 0.91334,-0.471 0.14847,-0.026 0.30682,-0.028 0.38752,-0.01 0.0828,0.023 0.18037,0.1283 0.21234,0.2299 0.0298,0.095 0.0194,0.153 -0.0458,0.2558 -0.0506,0.08 -0.12313,0.1169 -0.2897,0.148 -0.25639,0.048 -0.33505,0.071 -0.45389,0.1302 -0.20577,0.1033 -0.35396,0.2487 -0.45784,0.4492 -0.0683,0.1318 -0.0958,0.2226 -0.12333,0.4073 -0.0362,0.2427 -0.0709,0.3109 -0.18792,0.3699 -0.066,0.033 -0.2109,0.03 -0.28372,-0.01 z m 9.3456601,2.1145 c 0.54971,-0.052 1.04075,-0.2738 1.43,-0.6454 0.32549,-0.3108 0.50686,-0.5905 0.64725,-0.9982 0.0877,-0.2547 0.10786,-0.3965 0.10768,-0.7566 -2.2e-4,-0.4735 -0.044,-0.667 -0.24086,-1.0646 -0.42828,-0.8651 -1.30738,-1.3876 -2.26466,-1.346 -0.4761,0.021 -0.86483,0.155 -1.26461,0.4368 -0.15657,0.1103 -0.4932701,0.4497 -0.6114901,0.6163 -0.11963,0.1685 -0.24623,0.4232 -0.32682,0.6573 l -0.0615,0.1786 -0.005,0.4732 c -0.006,0.5426 -4.9e-4,0.5813 0.11939,0.8875 0.13604,0.3475 0.29005,0.5764 0.5842801,0.8686 0.3011,0.2989 0.55061,0.456 0.91531,0.576 0.33855,0.1115 0.64108,0.1477 0.97096,0.1165 z"
       id="path836" />
  </g>
</svg>
